REM DIRINDEX 1\2\4,1\2\5,1\2\6,1\3\7,1\3\8,1\3\9,1\3\10
REM DIRNAME folder01,folder02,folder03,folder04,folder05,folder06,folder07,folder08,folder09,folder10
TITLE ""
FILE "a_47.mp3" MP3
  TRACK 01 AUDIO
    TITLE "0:"
    INDEX 01 00:00:00
  TRACK 02 AUDIO
    TITLE "6:cjc058_1304"
    INDEX 01 00:00:09
  TRACK 03 AUDIO
    TITLE "0:"
    INDEX 01 00:02:53
  TRACK 04 AUDIO
    TITLE "4:cjc058_1305"
    INDEX 01 00:03:25
  TRACK 05 AUDIO
    TITLE "0:"
    INDEX 01 00:05:14
  TRACK 06 AUDIO
    TITLE "5:cjc058_1306"
    INDEX 01 00:05:48
  TRACK 07 AUDIO
    TITLE "0:"
    INDEX 01 00:07:54
  TRACK 08 AUDIO
    TITLE "4:cjc058_1307"
    INDEX 01 00:08:62
  TRACK 09 AUDIO
    TITLE "0:"
    INDEX 01 00:10:29
  TRACK 10 AUDIO
    TITLE "5:cjc058_1308"
    INDEX 01 00:10:63
  TRACK 11 AUDIO
    TITLE "0:"
    INDEX 01 00:13:33
  TRACK 12 AUDIO
    TITLE "4:cjc058_1309"
    INDEX 01 00:14:39
  TRACK 13 AUDIO
    TITLE "0:"
    INDEX 01 00:16:42
  TRACK 14 AUDIO
    TITLE "5:cjc058_1310"
    INDEX 01 00:17:00
  TRACK 15 AUDIO
    TITLE "0:"
    INDEX 01 00:19:44
  TRACK 16 AUDIO
    TITLE "4:cjc058_1311"
    INDEX 01 00:20:49
  TRACK 17 AUDIO
    TITLE "0:"
    INDEX 01 00:21:72
  TRACK 18 AUDIO
    TITLE "5:cjc058_1312"
    INDEX 01 00:22:29
  TRACK 19 AUDIO
    TITLE "0:"
    INDEX 01 00:24:04
  TRACK 20 AUDIO
    TITLE "4:cjc058_1313"
    INDEX 01 00:25:07
  TRACK 21 AUDIO
    TITLE "0:"
    INDEX 01 00:26:24
  TRACK 22 AUDIO
    TITLE "5:cjc058_1314"
    INDEX 01 00:26:58
  TRACK 23 AUDIO
    TITLE "0:"
    INDEX 01 00:29:40
  TRACK 24 AUDIO
    TITLE "4:cjc058_1315"
    INDEX 01 00:30:46
  TRACK 25 AUDIO
    TITLE "0:"
    INDEX 01 00:31:65
  TRACK 26 AUDIO
    TITLE "5:cjc058_1316"
    INDEX 01 00:32:23
  TRACK 27 AUDIO
    TITLE "0:"
    INDEX 01 00:34:49
  TRACK 28 AUDIO
    TITLE "4:cjc058_1317"
    INDEX 01 00:35:55
  TRACK 29 AUDIO
    TITLE "0:"
    INDEX 01 00:37:10
  TRACK 30 AUDIO
    TITLE "5:cjc058_1318"
    INDEX 01 00:37:44
  TRACK 31 AUDIO
    TITLE "0:"
    INDEX 01 00:39:70
  TRACK 32 AUDIO
    TITLE "4:cjc058_1319"
    INDEX 01 00:40:72
  TRACK 33 AUDIO
    TITLE "0:"
    INDEX 01 00:42:65
  TRACK 34 AUDIO
    TITLE "5:cjc058_1320"
    INDEX 01 00:43:25
  TRACK 35 AUDIO
    TITLE "0:"
    INDEX 01 00:45:04
  TRACK 36 AUDIO
    TITLE "4:cjc058_1321"
    INDEX 01 00:46:07
  TRACK 37 AUDIO
    TITLE "0:"
    INDEX 01 00:47:34
  TRACK 38 AUDIO
    TITLE "5:cjc058_1322"
    INDEX 01 00:47:68
  TRACK 39 AUDIO
    TITLE "0:"
    INDEX 01 00:49:59
  TRACK 40 AUDIO
    TITLE "4:cjc058_1323"
    INDEX 01 00:50:64
  TRACK 41 AUDIO
    TITLE "0:"
    INDEX 01 00:52:04
  TRACK 42 AUDIO
    TITLE "5:cjc058_1324"
    INDEX 01 00:52:37
  TRACK 43 AUDIO
    TITLE "0:"
    INDEX 01 00:55:36
  TRACK 44 AUDIO
    TITLE "4:cjc058_1325"
    INDEX 01 00:56:43
  TRACK 45 AUDIO
    TITLE "0:"
    INDEX 01 00:57:56
  TRACK 46 AUDIO
    TITLE "5:cjc058_1326"
    INDEX 01 00:58:15
  TRACK 47 AUDIO
    TITLE "0:"
    INDEX 01 00:59:28
  TRACK 48 AUDIO
    TITLE "4:cjc058_1327"
    INDEX 01 01:00:31
  TRACK 49 AUDIO
    TITLE "0:"
    INDEX 01 01:01:44
  TRACK 50 AUDIO
    TITLE "5:cjc058_1328"
    INDEX 01 01:02:03
  TRACK 51 AUDIO
    TITLE "0:"
    INDEX 01 01:03:20
  TRACK 52 AUDIO
    TITLE "4:cjc058_1329"
    INDEX 01 01:04:21
  TRACK 53 AUDIO
    TITLE "0:"
    INDEX 01 01:05:34
  TRACK 54 AUDIO
    TITLE "5:cjc058_1330"
    INDEX 01 01:05:68
  TRACK 55 AUDIO
    TITLE "0:"
    INDEX 01 01:06:69
  TRACK 56 AUDIO
    TITLE "4:cjc058_1331"
    INDEX 01 01:07:72
  TRACK 57 AUDIO
    TITLE "0:"
    INDEX 01 01:09:34
  TRACK 58 AUDIO
    TITLE "5:cjc058_1332"
    INDEX 01 01:09:67
  TRACK 59 AUDIO
    TITLE "0:"
    INDEX 01 01:11:19
  TRACK 60 AUDIO
    TITLE "4:cjc058_1333"
    INDEX 01 01:12:24
  TRACK 61 AUDIO
    TITLE "0:"
    INDEX 01 01:13:61
  TRACK 62 AUDIO
    TITLE "5:cjc058_1334"
    INDEX 01 01:14:19
  TRACK 63 AUDIO
    TITLE "0:"
    INDEX 01 01:15:33
  TRACK 64 AUDIO
    TITLE "4:cjc058_1335"
    INDEX 01 01:16:40
  TRACK 65 AUDIO
    TITLE "0:"
    INDEX 01 01:17:69
  TRACK 66 AUDIO
    TITLE "5:cjc058_1336"
    INDEX 01 01:18:27
  TRACK 67 AUDIO
    TITLE "0:"
    INDEX 01 01:20:22
  TRACK 68 AUDIO
    TITLE "4:cjc058_1337"
    INDEX 01 01:21:31
  TRACK 69 AUDIO
    TITLE "0:"
    INDEX 01 01:22:50
  TRACK 70 AUDIO
    TITLE "5:cjc058_1338"
    INDEX 01 01:23:09
  TRACK 71 AUDIO
    TITLE "0:"
    INDEX 01 01:24:22
  TRACK 72 AUDIO
    TITLE "4:cjc058_1339"
    INDEX 01 01:25:25
  TRACK 73 AUDIO
    TITLE "0:"
    INDEX 01 01:26:64
  TRACK 74 AUDIO
    TITLE "5:cjc058_1340"
    INDEX 01 01:27:22
  TRACK 75 AUDIO
    TITLE "0:"
    INDEX 01 01:29:37
  TRACK 76 AUDIO
    TITLE "4:cjc058_1341"
    INDEX 01 01:30:44
  TRACK 77 AUDIO
    TITLE "0:"
    INDEX 01 01:32:47
  TRACK 78 AUDIO
    TITLE "5:cjc058_1342"
    INDEX 01 01:33:05
  TRACK 79 AUDIO
    TITLE "0:"
    INDEX 01 01:35:73
  TRACK 80 AUDIO
    TITLE "4:cjc058_1343"
    INDEX 01 01:37:03
  TRACK 81 AUDIO
    TITLE "0:"
    INDEX 01 01:38:36
  TRACK 82 AUDIO
    TITLE "5:cjc058_1344"
    INDEX 01 01:38:69
  TRACK 83 AUDIO
    TITLE "0:"
    INDEX 01 01:41:36
  TRACK 84 AUDIO
    TITLE "4:cjc058_1345"
    INDEX 01 01:42:39
  TRACK 85 AUDIO
    TITLE "0:"
    INDEX 01 01:44:26
  TRACK 86 AUDIO
    TITLE "5:cjc058_1346"
    INDEX 01 01:44:60
  TRACK 87 AUDIO
    TITLE "0:"
    INDEX 01 01:46:31
  TRACK 88 AUDIO
    TITLE "4:cjc058_1347"
    INDEX 01 01:47:35
  TRACK 89 AUDIO
    TITLE "0:"
    INDEX 01 01:48:54
  TRACK 90 AUDIO
    TITLE "5:cjc058_1348"
    INDEX 01 01:49:12
  TRACK 91 AUDIO
    TITLE "0:"
    INDEX 01 01:51:44
  TRACK 92 AUDIO
    TITLE "4:cjc058_1349"
    INDEX 01 01:52:48
  TRACK 93 AUDIO
    TITLE "0:"
    INDEX 01 01:53:72
  TRACK 94 AUDIO
    TITLE "5:cjc058_1350"
    INDEX 01 01:54:31
  TRACK 95 AUDIO
    TITLE "0:"
    INDEX 01 01:55:46
  TRACK 96 AUDIO
    TITLE "4:cjc058_1351"
    INDEX 01 01:56:51
  TRACK 97 AUDIO
    TITLE "0:"
    INDEX 01 01:58:44
  TRACK 98 AUDIO
    TITLE "5:cjc058_1352"
    INDEX 01 01:59:03
  TRACK 99 AUDIO
    TITLE "0:"
    INDEX 01 02:01:13
  TRACK 100 AUDIO
    TITLE "4:cjc058_1353"
    INDEX 01 02:02:17
  TRACK 101 AUDIO
    TITLE "0:"
    INDEX 01 02:03:69
  TRACK 102 AUDIO
    TITLE "5:cjc058_1354"
    INDEX 01 02:04:27
  TRACK 103 AUDIO
    TITLE "0:"
    INDEX 01 02:06:48
  TRACK 104 AUDIO
    TITLE "4:cjc058_1355"
    INDEX 01 02:07:57
  TRACK 105 AUDIO
    TITLE "0:"
    INDEX 01 02:08:72
  TRACK 106 AUDIO
    TITLE "5:cjc058_1356"
    INDEX 01 02:09:30
  TRACK 107 AUDIO
    TITLE "0:"
    INDEX 01 02:11:10
  TRACK 108 AUDIO
    TITLE "4:cjc058_1357"
    INDEX 01 02:12:17
  TRACK 109 AUDIO
    TITLE "0:"
    INDEX 01 02:13:65
  TRACK 110 AUDIO
    TITLE "5:cjc058_1358"
    INDEX 01 02:14:24
  TRACK 111 AUDIO
    TITLE "0:"
    INDEX 01 02:16:40
